<?xml version="1.0" standalone="no"?><!DOCTYPE svg PUBLIC "-//W3C//DTD SVG 1.1//EN" "http://www.w3.org/Graphics/SVG/1.1/DTD/svg11.dtd"><svg class="icon" width="200px" height="200.00px" viewBox="0 0 1024 1024" version="1.1" xmlns="http://www.w3.org/2000/svg"><path fill="#2c2c2c" d="M960 0H294.058667c-35.271111 0-64 28.672-64 64v128H64C28.672 192 0 220.672 0 256v704C0 995.328 28.672 1024 64 1024H768c35.328 0 64-28.672 64-64v-167.025778h128c35.328 0 64-28.672 64-64V64C1024 28.672 995.328 0 960 0zM768 728.974222v231.025778H64V256H768v472.974222z m189.44 0h-125.44V256c0-35.328-28.672-64-64-64H294.115556v-128h665.884444l-2.56 664.974222z" /></svg>