<?xml version="1.0" standalone="no"?>
<!DOCTYPE svg PUBLIC "-//W3C//DTD SVG 1.1//EN" "http://www.w3.org/Graphics/SVG/1.1/DTD/svg11.dtd"><svg width="1em" height="1em" viewBox="0 0 1244 1024" version="1.1" xmlns="http://www.w3.org/2000/svg"><path fill="currentColor" d="M1207.17145302 342.6005225a64.54308094 64.54308094 0 0 0-52.8459525-27.78067875h-135.770235V212.05221969a74.56919063 74.56919063 0 0 0-74.7780675-74.56919063H608.11140083a30.70496063 30.70496063 0 0 1-30.70496063-30.70496156A74.56919063 74.56919063 0 0 0 502.83724958 32H267.85030489A74.7780675 74.7780675 0 0 0 193.28111427 106.7780675a30.70496063 30.70496063 0 0 1-30.70496156 30.70496156H128.11140083A74.7780675 74.7780675 0 0 0 53.33333333 212.05221969v522.19321125A50.96605781 50.96605781 0 0 0 93.43777208 783.95822469L65.23933864 857.06527438a102.34986937 102.34986937 0 0 0 3.75979125 83.55091406 91.69712813 91.69712813 0 0 0 57.44125313 48.041775 112.16710219 112.16710219 0 0 0 26.31853781 3.34203656H930.61792864A93.78590062 93.78590062 0 0 0 1017.30200146 930.17232406l197.38903406-528.45953062a64.33420406 64.33420406 0 0 0-7.5195825-59.11227094zM97.61531802 736.96083594a5.22193219 5.22193219 0 0 1 0-1.87989563 2.715405 2.715405 0 0 1 0-1.25326406v-522.19321125a30.70496063 30.70496063 0 0 1 30.49608281-30.28720687h34.46475188A74.7780675 74.7780675 0 0 0 237.14534333 106.7780675a30.70496063 30.70496063 0 0 1 30.70496156-30.9138375h234.98694469A30.70496063 30.70496063 0 0 1 533.75108802 106.7780675a74.98694531 74.98694531 0 0 0 74.56919062 74.56919062h335.45691938a30.49608375 30.49608375 0 0 1 30.70496062 30.70496157v102.76762406h-626.63185406a110.49608344 110.49608344 0 0 0-104.43864188 72.27154031L129.99129645 689.96344625l-17.75456906 46.579635a7.10182781 7.10182781 0 0 1-6.89295 5.01305438h-1.67101875a7.72845938 7.72845938 0 0 1-6.05744062-4.59529969zM1173.54221052 387.09138406l-197.38903406 528.45952969A49.71279375 49.71279375 0 0 1 930.61792864 947.09138375H152.75892083a58.48563937 58.48563937 0 0 1-14.62141031-1.87989562 47.20626656 47.20626656 0 0 1-29.86945125-25.27415157 58.90339406 58.90339406 0 0 1-2.29765031-46.78851187l41.77545656-107.78067844 5.01305531-12.95039156 3.13315969-8.14621407 128.04177468-342.1409925a66.84073125 66.84073125 0 0 1 62.66318532-43.2375975h807.72846a20.88772875 20.88772875 0 0 1 16.91905969 8.77284563 20.88772875 20.88772875 0 0 1 2.29765031 19.42558781z"  /><path fill="#333333" d="M111.19234114 738.63185375a6.47519625 6.47519625 0 0 0 0-2.0887725l17.75456907-46.579635z"  /></svg>