<?xml version="1.0" standalone="no"?>
<!DOCTYPE svg PUBLIC "-//W3C//DTD SVG 1.1//EN" "http://www.w3.org/Graphics/SVG/1.1/DTD/svg11.dtd">
<svg width="1em" height="1em" viewBox="0 0 1024 1024" version="1.1" xmlns="http://www.w3.org/2000/svg">
	<path fill="currentColor" d="M904.72535376 223.93035125L533.46680562 223.93035125c-22.53316594 0-41.0791125-17.08889344-43.39028062-39.0109903-0.05084719-1.03897594-0.12088313-2.07123562-0.20818781-3.09965814-0.01726875-0.50653688-0.03741656-1.01307281-0.03741656-1.52440687l0 0.14773968-0.08442657 0c-4.38824437-44.09458406-41.59526343-78.51988313-86.83524561-78.51988312L119.27560531 101.9231525c-48.19106251 0-87.27272719 39.06375469-87.2727272 87.2681925l1e-8 645.61827094c0 48.19580344 39.07974656 87.26723251 87.27272719 87.2672325l785.44974844 0c48.19010249 0 87.27176813-39.07142999 87.27176813-87.2672325L991.99712188 311.19950281C991.99712188 262.995065 952.91737531 223.93035125 904.72535376 223.93035125zM948.36219687 834.809615c0 24.09790126-19.54179187 43.63313719-43.63588406 43.63313719L119.27560531 878.44275219c-24.1017675 0-43.63588406-19.535235-43.63588406-43.6331372L75.63972125 354.83263906l872.72247562 0L948.36219687 834.809615zM75.63972125 311.19950282L75.63972125 189.19230406c0-24.09406406 19.53411655-43.63409625 43.63588406-43.63409625l283.63564407 0c22.5475575 0 41.09925938 17.10712125 43.39315875 39.0445678 0.04988812 1.02170719 0.118005 2.03861813 0.20243062 3.05073189 0.01822875 0.51133312 0.0393347 1.02266625 0.03933469 1.53879656l0.09977625 0c4.45732031 44.02359188 41.63172094 78.37214344 86.81989593 78.37214344l371.26046719 0c24.09313314 0 43.634925 19.54003219 43.634925 43.63409625L75.63972125 311.19854375 75.63972125 311.19950282z" />
</svg>
