<?xml version="1.0" standalone="no"?><!DOCTYPE svg PUBLIC "-//W3C//DTD SVG 1.1//EN" "http://www.w3.org/Graphics/SVG/1.1/DTD/svg11.dtd"><svg width="1em" height="1em" viewBox="0 0 1024 1024" version="1.1" xmlns="http://www.w3.org/2000/svg"><path fill="currentColor" d="M919.68 929.92H104.32A96.64 96.64 0 0 1 7.68 832V148.48A97.28 97.28 0 0 1 104.32 51.84H384a96.64 96.64 0 0 1 72.96 33.92l56.96 64a40.96 40.96 0 0 0 24.32 11.52l379.52-3.84A96.64 96.64 0 0 1 1016.32 256v576a96.64 96.64 0 0 1-96.64 97.92zM104.32 115.84a32.64 32.64 0 0 0-32.64 32.64V832a32 32 0 0 0 32.64 32h815.36a32 32 0 0 0 32.64-32V256a32 32 0 0 0-32.64-32l-378.88 3.84A106.24 106.24 0 0 1 467.2 192l-56.96-64A31.36 31.36 0 0 0 384 115.84zM945.92 355.2H78.08a32 32 0 1 1 0-64h867.84a32 32 0 0 1 0 64zM718.08 644.48H305.92a32 32 0 0 1 0-64h412.16a32 32 0 0 1 0 64zM512 850.56a32 32 0 0 1-32-32V406.4a32 32 0 0 1 64 0v412.16a32 32 0 0 1-32 32z" /></svg>