<?xml version="1.0" standalone="no"?>
<!DOCTYPE svg PUBLIC "-//W3C//DTD SVG 1.1//EN" "http://www.w3.org/Graphics/SVG/1.1/DTD/svg11.dtd">
<svg viewBox="0 0 1024 1024" version="1.1" xmlns="http://www.w3.org/2000/svg" xmlns:xlink="http://www.w3.org/1999/xlink" width="1em" height="1em">
	<path fill='currentColor' d="M912.3125 252.21875L712.625 51.875C699.96875 39.125 682.8125 32 664.8125 32H279.5c-37.125 0-67.5 30.375-67.5 67.5v352.5c0 18.65625 15.09375 33.75 33.75 33.75s33.75-15.09375 33.75-33.75V99.59375l0.09375-0.09375H598.25v232.5c0 18.65625 15.09375 33.75 33.75 33.75h232.5v558.65625l-0.09375 0.09375H635.75c-18.65625 0-33.75 15.09375-33.75 33.75s15.09375 33.75 33.75 33.75h228.75c37.125 0 67.5-30.375 67.5-67.5V299.84375c0-17.8125-7.125-34.96875-19.6875-47.625zM665.75 298.25V100.4375l197.15625 197.8125H665.75zM504.5 512H159.5c-37.3125 0-67.5 30.1875-67.5 67.5v345c0 37.3125 30.1875 67.5 67.5 67.5h345c37.3125 0 67.5-30.1875 67.5-67.5V579.5c0-37.3125-30.1875-67.5-67.5-67.5z m-14.34375 392.71875c-18.09375 4.5-36.375-6.46875-40.96875-24.5625l-37.875-151.5-79.21875 158.4375c-6.09375 12.1875-18.9375 19.5-32.625 18.5625-13.59375-0.9375-25.3125-10.03125-29.625-22.96875L242 798.6875l-27.9375 83.90625c-4.6875 14.15625-17.90625 23.0625-31.96875 23.0625-3.5625 0-7.125-0.5625-10.6875-1.78125-17.71875-5.90625-27.28125-25.03125-21.375-42.65625l60-180c4.59375-13.78125 17.53125-23.0625 32.0625-23.0625s27.46875 9.28125 32.0625 23.0625L308.375 783.875l83.53125-167.15625c6.28125-12.65625 19.78125-19.96875 33.84375-18.46875 14.0625 1.5 25.59375 11.625 29.0625 25.40625l60 240c4.40625 18.28125-6.5625 36.5625-24.65625 41.0625z"></path>
</svg>
